<svg xmlns="http://www.w3.org/2000/svg" width="100.776" height="68.552" viewBox="0 0 100.776 68.552">
  <g id="Artboard_13" data-name="Artboard 13" transform="translate(-245.898 -211.11)">
    <path id="Path_1839" data-name="Path 1839" d="M373.048,245.05a14.714,14.714,0,1,1,14.189-14.71" transform="translate(-62.65 -2.007)" fill="none" stroke="#fe8e00" stroke-linecap="round" stroke-linejoin="round" stroke-width="5"/>
    <rect id="Rectangle_1794" data-name="Rectangle 1794" width="6.073" height="16.599" rx="3.037" transform="translate(326.126 240.297) rotate(135)" fill="#fe8e00"/>
    <rect id="Rectangle_1795" data-name="Rectangle 1795" width="18.459" height="3.241" rx="1.621" transform="translate(286.033 213.598)" fill="#fe8e00"/>
    <rect id="Rectangle_1796" data-name="Rectangle 1796" width="18.459" height="3.241" rx="1.621" transform="translate(278.548 219.837)" fill="#fe8e00"/>
    <rect id="Rectangle_1797" data-name="Rectangle 1797" width="18.459" height="3.241" rx="1.621" transform="translate(277.302 226.32)" fill="#fe8e00"/>
    <rect id="Rectangle_1798" data-name="Rectangle 1798" width="18.459" height="3.241" rx="1.621" transform="translate(279.298 232.807)" fill="#fe8e00"/>
    <rect id="Rectangle_1799" data-name="Rectangle 1799" width="28.933" height="3.241" rx="1.621" transform="translate(274.057 239.29)" fill="#fe8e00"/>
    <rect id="Rectangle_1800" data-name="Rectangle 1800" width="3.493" height="3.241" rx="1.621" transform="translate(266.325 239.29)" fill="#fe8e00"/>
    <rect id="Rectangle_1801" data-name="Rectangle 1801" width="4.738" height="3.241" rx="1.621" transform="translate(277.801 213.598)" fill="#fe8e00"/>
    <rect id="Rectangle_1802" data-name="Rectangle 1802" width="6.986" height="3.241" rx="1.621" transform="translate(265.826 226.572)" fill="#fe8e00"/>
    <rect id="Rectangle_1803" data-name="Rectangle 1803" width="18.958" height="2.994" rx="1.497" transform="translate(279.298 216.843)" fill="#232323"/>
    <rect id="Rectangle_1804" data-name="Rectangle 1804" width="20.203" height="3.241" rx="1.621" transform="translate(275.554 223.079)" fill="#232323"/>
    <rect id="Rectangle_1805" data-name="Rectangle 1805" width="20.203" height="3.241" rx="1.621" transform="translate(274.556 229.566)" fill="#232323"/>
    <rect id="Rectangle_1806" data-name="Rectangle 1806" width="20.203" height="3.241" rx="1.621" transform="translate(277.801 236.048)" fill="#232323"/>
    <path id="Path_1840" data-name="Path 1840" d="M367.19,213.619a11.588,11.588,0,0,0,4.581-1.279c2.495-1.245-2.985,3.493-2.985,3.493Z" transform="translate(-68.03)" fill="#fe8e00"/>
    <path id="Path_1841" data-name="Path 1841" d="M257.893,332.244a9,9,0,1,1,8.683-9" transform="translate(0 -58.562)" fill="none" stroke="#fff" stroke-linecap="round" stroke-linejoin="round" stroke-width="5"/>
    <rect id="Rectangle_1807" data-name="Rectangle 1807" width="3.715" height="10.159" rx="1.857" transform="translate(267.517 272.003) rotate(135)" fill="#fe8e00"/>
    <text id="uickly" transform="translate(268.675 272.661)" fill="#fff" font-size="28" font-family="Cairo-Regular, Montserrat"><tspan x="0" y="0" letter-spacing="-0.07em">u</tspan><tspan y="0" letter-spacing="-0.04em">ic</tspan><tspan y="0">kly</tspan></text>
  </g>
</svg>
