<svg xmlns="http://www.w3.org/2000/svg" width="19.794" height="17.063" viewBox="0 0 19.794 17.063">
  <g id="console" transform="translate(0 -0.5)">
    <path id="Path_1802" data-name="Path 1802" d="M312.683,288.841a.341.341,0,1,1-.341-.341A.341.341,0,0,1,312.683,288.841Zm0,0" transform="translate(-298.691 -275.714)" fill="#fe8e00"/>
    <path id="Path_1803" data-name="Path 1803" d="M40.115,228.7v1.327l-1.024,1.024-1.024-1.024V228.7a3.083,3.083,0,0,0-1.868,1.868h1.327l1.024,1.024-1.024,1.024H36.2a3.083,3.083,0,0,0,1.868,1.868v-1.327l1.024-1.024,1.024,1.024v1.327a3.083,3.083,0,0,0,1.868-1.868H40.657l-1.024-1.024,1.024-1.024h1.327A3.083,3.083,0,0,0,40.115,228.7Zm0,0" transform="translate(-34.655 -218.464)" fill="#fe8e00"/>
    <path id="Path_1804" data-name="Path 1804" d="M352.683,248.841a.341.341,0,1,1-.341-.341A.341.341,0,0,1,352.683,248.841Zm0,0" transform="translate(-336.984 -237.421)" fill="#fe8e00"/>
    <path id="Path_1805" data-name="Path 1805" d="M352.683,328.841a.341.341,0,1,1-.341-.341A.341.341,0,0,1,352.683,328.841Zm0,0" transform="translate(-336.984 -314.008)" fill="#fe8e00"/>
    <path id="Path_1806" data-name="Path 1806" d="M291.071,224.5a3.071,3.071,0,1,0,3.071,3.071A3.075,3.075,0,0,0,291.071,224.5Zm0,.341a1.024,1.024,0,1,1-1.024,1.024A1.025,1.025,0,0,1,291.071,224.841Zm-2.73,2.73a1.024,1.024,0,1,1,1.024,1.024A1.025,1.025,0,0,1,288.341,227.571Zm2.73,2.73a1.024,1.024,0,1,1,1.024-1.024A1.025,1.025,0,0,1,291.071,230.3Zm2.73-2.73a1.024,1.024,0,1,1-1.024-1.024A1.025,1.025,0,0,1,293.8,227.571Zm0,0" transform="translate(-275.714 -214.444)" fill="#fe8e00"/>
    <path id="Path_1807" data-name="Path 1807" d="M392.683,288.841a.341.341,0,1,1-.341-.341A.341.341,0,0,1,392.683,288.841Zm0,0" transform="translate(-375.278 -275.714)" fill="#fe8e00"/>
    <path id="Path_1808" data-name="Path 1808" d="M190.928,192.5H187.1l.455,1.365h2.92Zm0,0" transform="translate(-179.116 -183.81)" fill="#fe8e00"/>
    <path id="Path_1809" data-name="Path 1809" d="M16.722,192.5H12.531l-.683,2.048h-3.9L7.262,192.5H3.071A3.075,3.075,0,0,0,0,195.571v2.73a3.075,3.075,0,0,0,3.071,3.071H16.722a3.075,3.075,0,0,0,3.071-3.071v-2.73a3.075,3.075,0,0,0-3.071-3.071Zm-7.849,3.413H10.92v3.413H8.873ZM4.436,200.69a3.754,3.754,0,1,1,3.754-3.754A3.758,3.758,0,0,1,4.436,200.69Zm4.778,0H8.532v-.683h.683Zm2.048,0h-.683v-.683h.683Zm4.1,0a3.754,3.754,0,1,1,3.754-3.754A3.758,3.758,0,0,1,15.357,200.69Zm0,0" transform="translate(0 -183.81)" fill="#fe8e00"/>
    <path id="Path_1810" data-name="Path 1810" d="M224,320.5h.683v.683H224Zm0,0" transform="translate(-214.445 -306.349)" fill="#fe8e00"/>
    <path id="Path_1811" data-name="Path 1811" d="M224,288.5h.683v.683H224Zm0,0" transform="translate(-214.445 -275.714)" fill="#fe8e00"/>
    <path id="Path_1812" data-name="Path 1812" d="M96.683,225.724v-1.2a2.9,2.9,0,0,0-.683,0v1.2l.341.341Zm0,0" transform="translate(-91.905 -214.445)" fill="#fe8e00"/>
    <path id="Path_1813" data-name="Path 1813" d="M16.722.5H3.071A3.075,3.075,0,0,0,0,3.571V6.3A3.037,3.037,0,0,0,1.05,8.6a3.728,3.728,0,0,1,2.021-.6H16.722a3.728,3.728,0,0,1,2.021.6,3.037,3.037,0,0,0,1.05-2.3V3.571A3.075,3.075,0,0,0,16.722.5ZM1.365,5.96H.683V5.278h.683Zm0-1.365H.683V3.913h.683Zm0-1.365H.683V2.548h.683Zm16.381,4.1H2.048V1.183h15.7ZM19.111,5.96h-.683V5.278h.683Zm0-1.365h-.683V3.913h.683Zm0-1.365h-.683V2.548h.683Zm0,0" transform="translate(0)" fill="#fe8e00"/>
    <path id="Path_1814" data-name="Path 1814" d="M139.313,288.841l.341.341h1.2a2.9,2.9,0,0,0,0-.683h-1.2Zm0,0" transform="translate(-133.37 -275.714)" fill="#fe8e00"/>
    <path id="Path_1815" data-name="Path 1815" d="M96,332.154v1.2a2.9,2.9,0,0,0,.683,0v-1.2l-.341-.341Zm0,0" transform="translate(-91.905 -317.18)" fill="#fe8e00"/>
    <path id="Path_1816" data-name="Path 1816" d="M33.565,288.841l-.341-.341h-1.2a2.9,2.9,0,0,0,0,.683h1.2Zm0,0" transform="translate(-30.635 -275.714)" fill="#fe8e00"/>
    <path id="Path_1817" data-name="Path 1817" d="M78.333,32.5H64v4.778H78.333ZM65.44,36.382l2.73-3.413.533.427-2.73,3.413Zm2.73,0,2.73-3.413.533.427L68.7,36.809Zm2.73,0,2.73-3.413.533.427-2.73,3.413Zm3.263.427-.533-.427,2.73-3.413.533.427Zm0,0" transform="translate(-61.27 -30.635)" fill="#fe8e00"/>
  </g>
</svg>
