<svg xmlns="http://www.w3.org/2000/svg" width="14" height="17.5" viewBox="0 0 14 17.5">
  <g id="surface1" transform="translate(-0.25)">
    <path id="Path_1825" data-name="Path 1825" d="M588.143,363.484l-.393.43,1.789,1.64a2.046,2.046,0,0,1,.661,1.505v7.14h.583v-7.14a2.632,2.632,0,0,0-.851-1.935Zm0,0" transform="translate(-576.533 -356.699)" fill="#fe8e00"/>
    <path id="Path_1826" data-name="Path 1826" d="M9.292,0H1.708A1.46,1.46,0,0,0,.25,1.458V16.042A1.46,1.46,0,0,0,1.708,17.5H9v-.522a6.631,6.631,0,0,1,1.118-3.691.292.292,0,0,0-.036-.368L8.04,10.877a.946.946,0,0,1,.069-1.4.982.982,0,0,1,1.306.1l2.879,2.879.412-.412L10.75,10.088V1.458A1.46,1.46,0,0,0,9.292,0Zm.875,9.5-.339-.339a1.57,1.57,0,0,0-2.09-.138,1.53,1.53,0,0,0-.111,2.263L9.5,13.165a7.211,7.211,0,0,0-1.084,3.752H1.708a.875.875,0,0,1-.875-.875v-.875H8.125v-.583H.833V2.333h9.333Zm0-7.754H.833V1.458A.875.875,0,0,1,1.708.583H9.292a.875.875,0,0,1,.875.875Zm0,0" fill="#fe8e00"/>
    <path id="Path_1827" data-name="Path 1827" d="M63.333,158.583H64.5a.583.583,0,0,0,.583-.583v-1.167a.583.583,0,0,0-.583-.583H63.333a.583.583,0,0,0-.583.583V158A.583.583,0,0,0,63.333,158.583Zm0-1.75H64.5V158H63.333Zm0,0" transform="translate(-61.333 -153.333)" fill="#fe8e00"/>
    <path id="Path_1828" data-name="Path 1828" d="M219.583,158.583h1.167a.583.583,0,0,0,.583-.583v-1.167a.583.583,0,0,0-.583-.583h-1.167a.583.583,0,0,0-.583.583V158A.583.583,0,0,0,219.583,158.583Zm0-1.75h1.167V158h-1.167Zm0,0" transform="translate(-214.667 -153.333)" fill="#fe8e00"/>
    <path id="Path_1829" data-name="Path 1829" d="M375.833,158.583H377a.583.583,0,0,0,.583-.583v-1.167a.583.583,0,0,0-.583-.583h-1.167a.583.583,0,0,0-.583.583V158A.583.583,0,0,0,375.833,158.583Zm0-1.75H377V158h-1.167Zm0,0" transform="translate(-368 -153.333)" fill="#fe8e00"/>
    <path id="Path_1830" data-name="Path 1830" d="M63.333,314.833H64.5a.583.583,0,0,0,.583-.583v-1.167a.583.583,0,0,0-.583-.583H63.333a.583.583,0,0,0-.583.583v1.167A.583.583,0,0,0,63.333,314.833Zm0-1.75H64.5v1.167H63.333Zm0,0" transform="translate(-61.333 -306.667)" fill="#fe8e00"/>
    <path id="Path_1831" data-name="Path 1831" d="M63.333,471.083H64.5a.583.583,0,0,0,.583-.583v-1.167a.583.583,0,0,0-.583-.583H63.333a.583.583,0,0,0-.583.583V470.5A.583.583,0,0,0,63.333,471.083Zm0-1.75H64.5V470.5H63.333Zm0,0" transform="translate(-61.333 -460)" fill="#fe8e00"/>
    <path id="Path_1832" data-name="Path 1832" d="M219.583,314.833h1.167a.583.583,0,0,0,.583-.583v-1.167a.583.583,0,0,0-.583-.583h-1.167a.583.583,0,0,0-.583.583v1.167A.583.583,0,0,0,219.583,314.833Zm0-1.75h1.167v1.167h-1.167Zm0,0" transform="translate(-214.667 -306.667)" fill="#fe8e00"/>
    <path id="Path_1833" data-name="Path 1833" d="M375.833,314.833H377a.583.583,0,0,0,.583-.583v-1.167A.583.583,0,0,0,377,312.5h-1.167a.583.583,0,0,0-.583.583v1.167A.583.583,0,0,0,375.833,314.833Zm0-1.75H377v1.167h-1.167Zm0,0" transform="translate(-368 -306.667)" fill="#fe8e00"/>
    <path id="Path_1834" data-name="Path 1834" d="M219.583,471.083h1.167a.583.583,0,0,0,.583-.583v-1.167a.583.583,0,0,0-.583-.583h-1.167a.583.583,0,0,0-.583.583V470.5A.583.583,0,0,0,219.583,471.083Zm0-1.75h1.167V470.5h-1.167Zm0,0" transform="translate(-214.667 -460)" fill="#fe8e00"/>
    <path id="Path_1835" data-name="Path 1835" d="M63.333,627.333H64.5a.583.583,0,0,0,.583-.583v-1.167A.583.583,0,0,0,64.5,625H63.333a.583.583,0,0,0-.583.583v1.167A.583.583,0,0,0,63.333,627.333Zm0-1.75H64.5v1.167H63.333Zm0,0" transform="translate(-61.333 -613.333)" fill="#fe8e00"/>
    <path id="Path_1836" data-name="Path 1836" d="M219.583,627.333h1.167a.583.583,0,0,0,.583-.583v-1.167a.583.583,0,0,0-.583-.583h-1.167a.583.583,0,0,0-.583.583v1.167A.583.583,0,0,0,219.583,627.333Zm0-1.75h1.167v1.167h-1.167Zm0,0" transform="translate(-214.667 -613.333)" fill="#fe8e00"/>
    <path id="Path_1837" data-name="Path 1837" d="M265.875,843.75h.583v.583h-.583Zm0,0" transform="translate(-260.667 -828)" fill="#fe8e00"/>
  </g>
</svg>
