<svg id="facebook" xmlns="http://www.w3.org/2000/svg" width="26" height="26" viewBox="0 0 26 26">
  <path id="Path_72" data-name="Path 72" d="M291.181,508.668q-.162.026-.326.049Q291.019,508.694,291.181,508.668Zm0,0" transform="translate(-276.085 -482.837)" fill="#fb8c00"/>
  <path id="Path_73" data-name="Path 73" d="M299.495,507.793l-.155.027Zm0,0" transform="translate(-284.139 -482.007)" fill="#fb8c00"/>
  <path id="Path_74" data-name="Path 74" d="M277.992,510.34q-.19.021-.382.038Q277.8,510.362,277.992,510.34Zm0,0" transform="translate(-263.512 -484.424)" fill="#fb8c00"/>
  <path id="Path_75" data-name="Path 75" d="M286.629,509.738l-.183.023Zm0,0" transform="translate(-271.9 -483.853)" fill="#fb8c00"/>
  <path id="Path_76" data-name="Path 76" d="M306.8,506.41l-.137.029Zm0,0" transform="translate(-291.091 -480.694)" fill="#fb8c00"/>
  <path id="Path_77" data-name="Path 77" d="M324.6,502.113l-.111.031Zm0,0" transform="translate(-308.007 -476.615)" fill="#fb8c00"/>
  <path id="Path_78" data-name="Path 78" d="M319.18,503.543l-.121.031Zm0,0" transform="translate(-302.857 -477.973)" fill="#fb8c00"/>
  <path id="Path_79" data-name="Path 79" d="M312.195,505.254l-.128.029Zm0,0" transform="translate(-296.22 -479.597)" fill="#fb8c00"/>
  <path id="Path_80" data-name="Path 80" d="M273.686,511.09l-.206.015Zm0,0" transform="translate(-259.593 -485.136)" fill="#fb8c00"/>
  <path id="Path_81" data-name="Path 81" d="M26,13A13,13,0,1,0,13,26l.229,0V15.877H10.435V12.622h2.793v-2.4A3.91,3.91,0,0,1,17.4,5.937a22.991,22.991,0,0,1,2.5.128v2.9H18.2c-1.348,0-1.609.641-1.609,1.581v2.073h3.223l-.42,3.255h-2.8V25.5A13.007,13.007,0,0,0,26,13Zm0,0" fill="currentColor"/>
  <path id="Path_82" data-name="Path 82" d="M265.3,511.43q-.2.013-.407.02Q265.1,511.443,265.3,511.43Zm0,0" transform="translate(-251.439 -485.459)" fill="#fb8c00"/>
  <path id="Path_83" data-name="Path 83" d="M260.72,511.836l-.216.005Zm0,0" transform="translate(-247.275 -485.844)" fill="#fb8c00"/>
</svg>
