<svg xmlns="http://www.w3.org/2000/svg" width="26" height="26" viewBox="0 0 26 26">
  <g id="Group_867" data-name="Group 867" transform="translate(-159 -586)">
    <circle id="Ellipse_70" data-name="Ellipse 70" cx="13" cy="13" r="13" transform="translate(159 586)" fill="currentColor"/>
    <path id="Icon_awesome-google-plus-g" data-name="Icon awesome-google-plus-g" d="M14.1,10.318a5.76,5.76,0,0,1,.111,1.13,6.264,6.264,0,0,1-6.522,6.634,6.791,6.791,0,1,1,0-13.582A6.487,6.487,0,0,1,12.24,6.279L10.4,8.048A3.813,3.813,0,0,0,7.691,7a4.29,4.29,0,0,0,0,8.579,3.678,3.678,0,0,0,3.854-2.928H7.691V10.318H14.1Zm6.558.228V8.575H18.679v1.971H16.708v1.981h1.971V14.5H20.66V12.527h1.971V10.546H20.66Z" transform="translate(160.634 587.584)" fill="#fb8c00"/>
  </g>
</svg>
