<svg xmlns="http://www.w3.org/2000/svg" width="13.737" height="13.737" viewBox="0 0 13.737 13.737">
  <path id="Icon_material-my-location" data-name="Icon material-my-location" d="M8.368,5.871a2.5,2.5,0,1,0,2.5,2.5A2.5,2.5,0,0,0,8.368,5.871Zm5.582,1.873A5.616,5.616,0,0,0,8.993,2.786V1.5H7.744V2.786A5.616,5.616,0,0,0,2.786,7.744H1.5V8.993H2.786a5.616,5.616,0,0,0,4.958,4.958v1.286H8.993V13.951a5.616,5.616,0,0,0,4.958-4.958h1.286V7.744Zm-5.582,5a4.371,4.371,0,1,1,4.371-4.371A4.368,4.368,0,0,1,8.368,12.739Z" transform="translate(-1.5 -1.5)" fill="currentColor"/>
</svg>
