<svg xmlns="http://www.w3.org/2000/svg" width="17.029" height="17.029" viewBox="0 0 17.029 17.029">
  <g id="Icon_feather-eye-off" data-name="Icon feather-eye-off" transform="translate(-0.086 -0.086)">
    <path id="Path_1725" data-name="Path 1725" d="M12.434,15A6.5,6.5,0,0,1,8.6,16.328c-4.518,0-7.1-5.164-7.1-5.164A11.909,11.909,0,0,1,4.766,7.33M7.245,6.155A5.887,5.887,0,0,1,8.6,6c4.518,0,7.1,5.164,7.1,5.164a11.941,11.941,0,0,1-1.394,2.059m-4.338-.691A1.936,1.936,0,1,1,7.232,9.8" transform="translate(0 -2.564)" fill="none" stroke="#b8b8b8" stroke-linecap="round" stroke-linejoin="round" stroke-width="2"/>
    <path id="Path_1726" data-name="Path 1726" d="M1.5,1.5,15.7,15.7" fill="none" stroke="#b8b8b8" stroke-linecap="round" stroke-linejoin="round" stroke-width="2"/>
  </g>
</svg>
