<svg xmlns="http://www.w3.org/2000/svg" width="11.307" height="8.48" viewBox="0 0 11.307 8.48">
  <path id="Icon_metro-credit-card" data-name="Icon metro-credit-card" d="M12.818,5.784H3.631a1.063,1.063,0,0,0-1.06,1.06V13.2a1.063,1.063,0,0,0,1.06,1.06h9.187a1.063,1.063,0,0,0,1.06-1.06V6.844A1.063,1.063,0,0,0,12.818,5.784Zm-9.187.707h9.187a.358.358,0,0,1,.353.353V7.9H3.277V6.844a.358.358,0,0,1,.353-.353Zm9.187,7.067H3.631a.358.358,0,0,1-.353-.353v-3.18h9.894V13.2A.358.358,0,0,1,12.818,13.558Zm-8.834-2.12h.707v1.413H3.984Zm1.413,0H6.1v1.413H5.4Zm1.413,0h.707v1.413H6.811Z" transform="translate(-2.571 -5.784)" fill="#fe8e00"/>
</svg>
