<svg id="Group_118" data-name="Group 118" xmlns="http://www.w3.org/2000/svg" width="13.818" height="15.792" viewBox="0 0 13.818 15.792">
  <g id="Group_117" data-name="Group 117">
    <circle id="Ellipse_18" data-name="Ellipse 18" cx="0.645" cy="0.645" r="0.645" transform="translate(9.765 10.017)" fill="currentColor"/>
    <path id="Path_66" data-name="Path 66" d="M45.2,11.166a.617.617,0,0,0,.617-.617V8.266A2.47,2.47,0,0,0,43.351,5.8h-.741V3.623a3.7,3.7,0,0,0-7.4,0V5.8h-.739A2.47,2.47,0,0,0,32,8.266v5.058a2.47,2.47,0,0,0,2.468,2.468h8.883a2.47,2.47,0,0,0,2.468-2.468.617.617,0,1,0-1.234,0,1.235,1.235,0,0,1-1.234,1.234H34.468a1.235,1.235,0,0,1-1.234-1.234V8.266a1.235,1.235,0,0,1,1.234-1.234h8.883a1.235,1.235,0,0,1,1.234,1.234v2.282A.617.617,0,0,0,45.2,11.166ZM41.376,5.8H36.44V3.623a2.469,2.469,0,0,1,4.935,0Z" transform="translate(-32)" fill="currentColor"/>
    <circle id="Ellipse_19" data-name="Ellipse 19" cx="0.645" cy="0.645" r="0.645" transform="translate(5.128 10.017)" fill="currentColor"/>
    <circle id="Ellipse_20" data-name="Ellipse 20" cx="0.645" cy="0.645" r="0.645" transform="translate(2.825 10.017)" fill="currentColor"/>
    <circle id="Ellipse_21" data-name="Ellipse 21" cx="0.645" cy="0.645" r="0.645" transform="translate(7.431 10.017)" fill="currentColor"/>
  </g>
</svg>
