<svg xmlns="http://www.w3.org/2000/svg" width="17.243" height="17.243" viewBox="0 0 17.243 17.243">
  <path id="Icon_awesome-phone" data-name="Icon awesome-phone" d="M15.568.776,12.286.019a.762.762,0,0,0-.868.439L9.9,3.991a.755.755,0,0,0,.218.883L12.034,6.44a11.694,11.694,0,0,1-5.591,5.591L4.878,10.119A.756.756,0,0,0,3.994,9.9L.46,11.415a.766.766,0,0,0-.442.871l.757,3.282a.757.757,0,0,0,.738.587A14.639,14.639,0,0,0,16.155,1.514.756.756,0,0,0,15.568.776Z" transform="matrix(0.998, -0.07, 0.07, 0.998, 0.001, 1.128)" fill="#b8b8b8"/>
</svg>
