<svg xmlns="http://www.w3.org/2000/svg" width="13.155" height="10.523" viewBox="0 0 13.155 10.523">
  <path id="Icon_awesome-people-carry" data-name="Icon awesome-people-carry" d="M2.63,1.973A.987.987,0,1,0,1.644.987.987.987,0,0,0,2.63,1.973Zm7.892,0A.987.987,0,1,0,9.536.987.987.987,0,0,0,10.523,1.973Zm2.584,7.648L12.2,7.36l-.845.954-.041.374.569,1.422a.657.657,0,0,0,.61.413.639.639,0,0,0,.245-.047A.657.657,0,0,0,13.106,9.621Zm-.7-4.312-.38-1.648a1.332,1.332,0,0,0-.771-.923,1.268,1.268,0,0,0-1.153.068,2.252,2.252,0,0,0-.989,1.221l-.232.7-.329.21V2.96a.33.33,0,0,0-.329-.329H4.932A.33.33,0,0,0,4.6,2.96V4.933l-.331-.21-.232-.7a2.236,2.236,0,0,0-.989-1.221A1.269,1.269,0,0,0,1.9,2.738a1.332,1.332,0,0,0-.771.923L.749,5.309a1.317,1.317,0,0,0,.3,1.165l1.381,1.56.208,1.9a.658.658,0,0,0,.654.586c.025,0,.047,0,.072,0a.657.657,0,0,0,.582-.726L3.734,7.886a1.314,1.314,0,0,0-.321-.719L2.523,6.16l.362-1.445.14.419a1.329,1.329,0,0,0,.5.67l1.05.668a.875.875,0,0,0,.354.1H8.221a.875.875,0,0,0,.354-.1L9.624,5.8a1.321,1.321,0,0,0,.5-.67l.14-.419.362,1.445-.89,1.007a1.314,1.314,0,0,0-.321.719L9.211,9.794a.658.658,0,0,0,.582.726c.025,0,.047,0,.072,0a.658.658,0,0,0,.654-.586l.208-1.9,1.381-1.56a1.323,1.323,0,0,0,.3-1.165ZM.951,7.36l-.9,2.261a.658.658,0,1,0,1.221.489l.569-1.422L1.8,8.314.951,7.36Z" transform="translate(0.001)" fill="currentColor"/>
</svg>
