<svg xmlns="http://www.w3.org/2000/svg" width="15.669" height="15.668" viewBox="0 0 15.669 15.668">
  <path id="Profile" d="M14,10.832a9.684,9.684,0,0,0-2.362-1.42A12.848,12.848,0,0,1,9.826,8.4a6.371,6.371,0,0,0,1.579-3.83,6.02,6.02,0,0,0-.461-2.764A3.47,3.47,0,0,0,7.534,0a3.469,3.469,0,0,0-3.41,1.8,6.013,6.013,0,0,0-.462,2.764A6.366,6.366,0,0,0,5.242,8.4,12.784,12.784,0,0,1,3.427,9.412a9.691,9.691,0,0,0-2.362,1.42A4.632,4.632,0,0,0,0,13.794a1.256,1.256,0,0,0,1.255,1.275H13.812a1.256,1.256,0,0,0,1.256-1.275A4.633,4.633,0,0,0,14,10.832Zm.034,3.2a.314.314,0,0,1-.224.094H1.255a.314.314,0,0,1-.223-.094.318.318,0,0,1-.091-.225,3.761,3.761,0,0,1,.789-2.31,9.568,9.568,0,0,1,2.118-1.244,10.328,10.328,0,0,0,2.04-1.171l.636-.6L5.972,7.8A5.45,5.45,0,0,1,4.6,4.569a5.206,5.206,0,0,1,.361-2.34A2.608,2.608,0,0,1,7.534.942,2.608,2.608,0,0,1,10.1,2.229a5.209,5.209,0,0,1,.361,2.34A5.447,5.447,0,0,1,9.1,7.8l-.552.678.636.6a10.35,10.35,0,0,0,2.04,1.171A9.526,9.526,0,0,1,13.337,11.5a3.67,3.67,0,0,1,.789,2.31A.314.314,0,0,1,14.036,14.033Z" transform="translate(0.3 0.3)" fill="currentColor" stroke="currentColor" stroke-width="0.6" opacity="0.998"/>
</svg>
