<svg xmlns="http://www.w3.org/2000/svg" width="24.427" height="24.427" viewBox="0 0 24.427 24.427">
  <path id="Icon_awesome-redo-alt" data-name="Icon awesome-redo-alt" d="M12.8.562a12.172,12.172,0,0,1,8.415,3.383l1.759-1.759a1.182,1.182,0,0,1,2.018.836v6.6a1.182,1.182,0,0,1-1.182,1.182h-6.6a1.182,1.182,0,0,1-.836-2.018l2.056-2.056A8.273,8.273,0,1,0,18.224,19a.59.59,0,0,1,.806.027l1.953,1.953a.592.592,0,0,1-.024.859A12.214,12.214,0,1,1,12.8.562Z" transform="translate(-0.563 -0.562)" fill="currentColor"/>
</svg>
