<svg xmlns="http://www.w3.org/2000/svg" width="173.129" height="148.995" viewBox="0 0 173.129 148.995">
  <g id="Group_712" data-name="Group 712" transform="translate(0 0.523)">
    <g id="Group_691" data-name="Group 691" transform="translate(12.238 2.464)">
      <g id="Group_680" data-name="Group 680" transform="translate(41.429 98.29)">
        <g id="Group_678" data-name="Group 678" transform="translate(20.011 0)">
          <line id="Line_51" data-name="Line 51" y2="38.237" transform="translate(0.635)" fill="none" stroke="#521d12" stroke-linecap="round" stroke-linejoin="round" stroke-width="4"/>
          <path id="Path_1550" data-name="Path 1550" d="M204.5,347.123c-3.915,0-7.1-2.132-7.1-4.762s3.182-4.757,7.1-4.757,7.086,2.132,7.086,4.757S208.413,347.123,204.5,347.123Z" transform="translate(-197.403 -305.351)" fill="#9d9d9d" stroke="#521d12" stroke-linecap="round" stroke-linejoin="round" stroke-width="4"/>
        </g>
        <g id="Group_679" data-name="Group 679" transform="translate(0 0)">
          <line id="Line_52" data-name="Line 52" y2="38.237" transform="translate(13.555)" fill="none" stroke="#521d12" stroke-linecap="round" stroke-linejoin="round" stroke-width="4"/>
          <path id="Path_1551" data-name="Path 1551" d="M164.89,347.123c3.92,0,7.091-2.132,7.091-4.762s-3.171-4.757-7.091-4.757-7.088,2.132-7.088,4.757S160.973,347.123,164.89,347.123Z" transform="translate(-157.802 -305.351)" fill="#9d9d9d" stroke="#521d12" stroke-linecap="round" stroke-linejoin="round" stroke-width="4"/>
        </g>
      </g>
      <g id="Group_683" data-name="Group 683" transform="translate(0 26.006)">
        <g id="Group_681" data-name="Group 681" transform="translate(0 6.441)">
          <path id="Path_1552" data-name="Path 1552" d="M86.834,168.98c.961,16.043,11.2,28.46,22.886,27.76" transform="translate(-81.267 -156.095)" fill="none" stroke="#521d12" stroke-linecap="round" stroke-linejoin="round" stroke-width="4"/>
          <path id="Path_1553" data-name="Path 1553" d="M75.837,150.854c-.234-3.91,1.7-7.208,4.33-7.366s4.936,2.886,5.169,6.8-1.7,7.2-4.322,7.361S76.072,154.759,75.837,150.854Z" transform="translate(-75.818 -143.482)" fill="#9d9d9d" stroke="#521d12" stroke-linecap="round" stroke-linejoin="round" stroke-width="4"/>
        </g>
        <g id="Group_682" data-name="Group 682" transform="translate(92.783)">
          <path id="Path_1554" data-name="Path 1554" d="M278.834,156.338c.961,16.043-7.717,29.593-19.406,30.294" transform="translate(-259.428 -143.4)" fill="none" stroke="#521d12" stroke-linecap="round" stroke-linejoin="round" stroke-width="4"/>
          <path id="Path_1555" data-name="Path 1555" d="M298.113,137.537c-.234-3.91-2.555-6.954-5.173-6.8s-4.559,3.455-4.325,7.365,2.552,6.949,5.172,6.792S298.347,141.443,298.113,137.537Z" transform="translate(-273.857 -130.735)" fill="#9d9d9d" stroke="#521d12" stroke-linecap="round" stroke-linejoin="round" stroke-width="4"/>
        </g>
      </g>
      <g id="Group_684" data-name="Group 684" transform="translate(17.252)">
        <path id="Path_1556" data-name="Path 1556" d="M120.994,183.822a9.046,9.046,0,0,1-9.036-9.035V90.3a9.044,9.044,0,0,1,9.036-9.03h62.457a9.046,9.046,0,0,1,9.041,9.03v84.486a9.048,9.048,0,0,1-9.041,9.035Z" transform="translate(-110.947 -80.26)" fill="#e8e8e8"/>
        <path id="Path_1557" data-name="Path 1557" d="M182.461,81.292a8.028,8.028,0,0,1,8.03,8.02V173.8a8.027,8.027,0,0,1-8.03,8.025H120a8.022,8.022,0,0,1-8.025-8.025V89.312A8.022,8.022,0,0,1,120,81.292h62.457m0-2.021H120a10.055,10.055,0,0,0-10.046,10.041V173.8A10.057,10.057,0,0,0,120,183.843h62.457A10.06,10.06,0,0,0,192.513,173.8V89.312a10.058,10.058,0,0,0-10.051-10.041Z" transform="translate(-109.958 -79.271)" fill="#521d12"/>
      </g>
      <path id="Path_1558" data-name="Path 1558" d="M184.44,83.271H167.787a47.167,47.167,0,0,1,16.937,35.953c0,25.69-21.444,47.126-47.134,47.126a46.353,46.353,0,0,1-23.632-6.513v15.939a8.022,8.022,0,0,0,8.025,8.025H184.44a8.027,8.027,0,0,0,8.03-8.025V91.291A8.028,8.028,0,0,0,184.44,83.271Z" transform="translate(-94.685 -81.25)" fill="#bfbfbe"/>
      <g id="Group_690" data-name="Group 690" transform="translate(33.342 38.122)">
        <g id="Group_689" data-name="Group 689">
          <g id="Group_686" data-name="Group 686">
            <path id="Path_1559" data-name="Path 1559" d="M154.759,161.194a6.48,6.48,0,1,1-6.479-6.482A6.48,6.48,0,0,1,154.759,161.194Z" transform="translate(-141.8 -154.712)" fill="#521d12"/>
            <g id="Group_685" data-name="Group 685" transform="translate(1.432 1.507)">
              <path id="Path_1560" data-name="Path 1560" d="M150.744,160.75a3.055,3.055,0,1,1-3.059-3.055A3.057,3.057,0,0,1,150.744,160.75Z" transform="translate(-144.633 -157.695)" fill="#fff"/>
              <path id="Path_1561" data-name="Path 1561" d="M157.385,169.323a1.056,1.056,0,1,1-1.055-1.062A1.052,1.052,0,0,1,157.385,169.323Z" transform="translate(-149.896 -162.922)" fill="#fff"/>
            </g>
          </g>
          <g id="Group_688" data-name="Group 688" transform="translate(37.413)">
            <path id="Path_1562" data-name="Path 1562" d="M228.791,161.194a6.477,6.477,0,1,1-6.477-6.482A6.48,6.48,0,0,1,228.791,161.194Z" transform="translate(-215.837 -154.712)" fill="#521d12"/>
            <g id="Group_687" data-name="Group 687" transform="translate(1.423 1.507)">
              <path id="Path_1563" data-name="Path 1563" d="M224.766,160.75a3.057,3.057,0,1,1-3.059-3.055A3.06,3.06,0,0,1,224.766,160.75Z" transform="translate(-218.653 -157.695)" fill="#fff"/>
              <path id="Path_1564" data-name="Path 1564" d="M231.421,169.323a1.058,1.058,0,1,1-1.055-1.062A1.059,1.059,0,0,1,231.421,169.323Z" transform="translate(-223.922 -162.922)" fill="#fff"/>
            </g>
          </g>
        </g>
        <path id="Path_1565" data-name="Path 1565" d="M190.266,204.371a21.884,21.884,0,0,0-15.953-6.537c-9.079,0-14.861,6.537-14.861,6.537" transform="translate(-150.532 -176.043)" fill="none" stroke="#521d12" stroke-linecap="round" stroke-linejoin="round" stroke-width="4"/>
      </g>
    </g>
    <g id="Group_695" data-name="Group 695" transform="translate(120.288)">
      <path id="Path_1566" data-name="Path 1566" d="M295.183,78.9v13.89h1.851V78.9h.5l.37-4.506h-3.766l.554,4.506Z" transform="translate(-291.863 -74.395)" fill="#9d9d9d" stroke="#521d12" stroke-linecap="round" stroke-linejoin="round" stroke-width="1.046"/>
      <g id="Group_693" data-name="Group 693" transform="translate(0 17.658)">
        <g id="Group_692" data-name="Group 692">
          <path id="Rectangle_1726" data-name="Rectangle 1726" d="M3.98,0h0A3.981,3.981,0,0,1,7.963,3.981V14.974a3.982,3.982,0,0,1-3.982,3.982h0A3.981,3.981,0,0,1,0,14.975V3.98A3.98,3.98,0,0,1,3.98,0Z" transform="translate(0.264 0.264)" fill="#fd0"/>
          <path id="Path_1567" data-name="Path 1567" d="M294.809,109.867a2.792,2.792,0,0,1,2.793,2.792V125.5a2.792,2.792,0,0,1-2.793,2.792H292.96a2.792,2.792,0,0,1-2.792-2.792V112.659a2.792,2.792,0,0,1,2.792-2.792h1.849m0-.529H292.96a3.325,3.325,0,0,0-3.32,3.321V125.5a3.324,3.324,0,0,0,3.32,3.32h1.849a3.325,3.325,0,0,0,3.322-3.32V112.659a3.325,3.325,0,0,0-3.322-3.321Z" transform="translate(-289.64 -109.338)" fill="#521d12"/>
        </g>
      </g>
      <path id="Path_1568" data-name="Path 1568" d="M293.478,128.812h1.849a2.766,2.766,0,0,0,1.143-.246,7.22,7.22,0,0,1,1.65-13.985v-1.4a2.792,2.792,0,0,0-2.793-2.792h-1.849a2.792,2.792,0,0,0-2.792,2.792V126.02A2.792,2.792,0,0,0,293.478,128.812Z" transform="translate(-290.157 -92.198)" fill="#cb920a"/>
      <g id="Group_694" data-name="Group 694" transform="translate(2.404 19.678)">
        <line id="Line_53" data-name="Line 53" y1="14.817" transform="translate(3.683 0.399)" fill="#fff" stroke="#521d12" stroke-linecap="round" stroke-linejoin="round" stroke-width="1.046"/>
        <line id="Line_54" data-name="Line 54" y1="15.447" transform="translate(1.843)" fill="#fff" stroke="#521d12" stroke-linecap="round" stroke-linejoin="round" stroke-width="1.046"/>
        <line id="Line_55" data-name="Line 55" y1="14.817" transform="translate(0 0.399)" fill="#fff" stroke="#521d12" stroke-linecap="round" stroke-linejoin="round" stroke-width="1.046"/>
      </g>
    </g>
    <g id="Group_703" data-name="Group 703" transform="translate(0 24.305)">
      <g id="Group_697" data-name="Group 697" transform="translate(6.472 5.047)">
        <g id="Group_696" data-name="Group 696">
          <path id="Path_1569" data-name="Path 1569" d="M68.922,149.672a.48.48,0,0,1-.1-.01.5.5,0,0,1-.322-.213l-3.009-4.469a.506.506,0,0,1,.137-.7l15.907-10.711a.509.509,0,0,1,.282-.086.521.521,0,0,1,.1.009.507.507,0,0,1,.322.214l3.009,4.47a.505.505,0,0,1-.137.7L69.2,149.586A.509.509,0,0,1,68.922,149.672Z" transform="translate(-64.903 -132.976)" fill="#9d9d9d"/>
          <path id="Path_1570" data-name="Path 1570" d="M81.326,133.492l3.009,4.469L68.427,148.672,65.419,144.2l15.908-10.711m0-1.011a1.01,1.01,0,0,0-.564.172L64.854,143.365a1.011,1.011,0,0,0-.274,1.4l3.009,4.469a1.011,1.011,0,0,0,.645.428.993.993,0,0,0,.193.019,1.011,1.011,0,0,0,.565-.172L84.9,138.8a1.011,1.011,0,0,0,.274-1.4l-3.009-4.469a1.011,1.011,0,0,0-.645-.427,1,1,0,0,0-.194-.019Z" transform="translate(-64.408 -132.481)" fill="#521d12"/>
        </g>
      </g>
      <path id="Path_1571" data-name="Path 1571" d="M84.035,137.033a8.389,8.389,0,0,0-6.207,1.264,8.492,8.492,0,0,0-3.613,8.132l-4.8,3.231-3.009-4.469,15.908-10.711Z" transform="translate(-58.926 -128.423)" fill="#595d61"/>
      <g id="Group_699" data-name="Group 699" transform="translate(20.835)">
        <g id="Group_698" data-name="Group 698">
          <path id="Path_1572" data-name="Path 1572" d="M99.921,135.66a6.084,6.084,0,1,1,2.957-11.4.505.505,0,0,1,.037.861l-4.286,2.885a.687.687,0,0,0-.186.954l1.487,2.21a.686.686,0,0,0,.955.186l4.284-2.885a.5.5,0,0,1,.282-.086.509.509,0,0,1,.21.045.5.5,0,0,1,.292.4,6.083,6.083,0,0,1-6.032,6.83Z" transform="translate(-93.325 -122.988)" fill="#9d9d9d"/>
          <path id="Path_1573" data-name="Path 1573" d="M99.414,123.5a5.611,5.611,0,0,1,2.724.7l-4.285,2.886a1.191,1.191,0,0,0-.323,1.655l1.487,2.209a1.192,1.192,0,0,0,1.656.324l4.284-2.885a5.578,5.578,0,1,1-5.543-4.894m0-1.011h0a6.589,6.589,0,1,0,6.545,5.781,1.01,1.01,0,0,0-1.567-.715l-4.284,2.885a.177.177,0,0,1-.1.031.183.183,0,0,1-.152-.081l-1.487-2.209a.18.18,0,0,1,.049-.252l4.285-2.886a1.011,1.011,0,0,0-.074-1.722,6.634,6.634,0,0,0-3.215-.832Z" transform="translate(-92.831 -122.493)" fill="#521d12"/>
        </g>
      </g>
      <path id="Path_1574" data-name="Path 1574" d="M100.309,124.5a8.506,8.506,0,0,0-1.4,10.946,5.575,5.575,0,0,1,1.4-10.946Z" transform="translate(-72.987 -123.486)" fill="#595d61"/>
      <g id="Group_701" data-name="Group 701" transform="translate(0 14.029)">
        <g id="Group_700" data-name="Group 700">
          <path id="Path_1575" data-name="Path 1575" d="M58.691,163.423a6.125,6.125,0,0,1-2.968-.77.506.506,0,0,1-.036-.861l4.285-2.885a.688.688,0,0,0,.186-.955l-1.487-2.208a.688.688,0,0,0-.955-.187l-4.285,2.885a.506.506,0,0,1-.784-.357,6.084,6.084,0,1,1,6.044,5.338Z" transform="translate(-52.095 -150.75)" fill="#9d9d9d"/>
          <path id="Path_1576" data-name="Path 1576" d="M58.184,151.266a5.579,5.579,0,1,1-2.71,10.451l4.285-2.885a1.193,1.193,0,0,0,.322-1.656l-1.487-2.208a1.193,1.193,0,0,0-1.656-.324l-4.285,2.885a5.579,5.579,0,0,1,5.53-6.263m0-1.011h0a6.59,6.59,0,0,0-6.533,7.4,1.011,1.011,0,0,0,1.568.716l4.284-2.885a.179.179,0,0,1,.1-.031.182.182,0,0,1,.153.08l1.487,2.209a.179.179,0,0,1,.028.137.176.176,0,0,1-.076.116l-4.285,2.885a1.011,1.011,0,0,0,.073,1.722,6.625,6.625,0,0,0,3.213.833,6.589,6.589,0,0,0-.012-13.178Z" transform="translate(-51.601 -150.255)" fill="#521d12"/>
        </g>
      </g>
      <path id="Path_1577" data-name="Path 1577" d="M62.244,172.289a5.6,5.6,0,0,1-2.978-.7l2.043-1.375A8.146,8.146,0,0,0,62.244,172.289Z" transform="translate(-55.393 -146.1)" fill="#595d61"/>
      <path id="Path_1578" data-name="Path 1578" d="M61.032,152.572a8.329,8.329,0,0,0-2.125,2.9,1.191,1.191,0,0,0-.978.162l-4.285,2.885a5.578,5.578,0,0,1,7.387-5.946Z" transform="translate(-52.591 -137.216)" fill="#595d61"/>
      <g id="Group_702" data-name="Group 702" transform="translate(12.687 10.204)">
        <line id="Line_56" data-name="Line 56" x1="7.909" y2="5.325" transform="translate(0.912 1.356)" fill="none" stroke="#521d12" stroke-linecap="round" stroke-linejoin="round" stroke-width="2"/>
        <line id="Line_57" data-name="Line 57" x1="7.909" y2="5.325" fill="none" stroke="#521d12" stroke-linecap="round" stroke-linejoin="round" stroke-width="2"/>
      </g>
    </g>
    <g id="Group_711" data-name="Group 711" transform="translate(75.94 76.323)">
      <g id="Group_705" data-name="Group 705" transform="translate(12.19)">
        <g id="Group_704" data-name="Group 704">
          <path id="Path_1579" data-name="Path 1579" d="M229.014,289.01a1.011,1.011,0,0,1-.875-1.516l34.382-59.557a1.011,1.011,0,0,1,1.75,0l17.2,29.779,17.19,29.778a1.011,1.011,0,0,1-.875,1.516Z" transform="translate(-226.992 -226.421)" fill="#fe8e00"/>
          <path id="Path_1580" data-name="Path 1580" d="M262.406,227.453,279.6,257.232l17.19,29.778H228.024l17.191-29.778,17.191-29.779m0-2.021h0a2.021,2.021,0,0,0-1.751,1.011l-17.191,29.779L226.273,286a2.022,2.022,0,0,0,1.751,3.032h68.767A2.022,2.022,0,0,0,298.542,286l-17.19-29.778-17.2-29.779a2.02,2.02,0,0,0-1.75-1.011Z" transform="translate(-226.003 -225.432)" fill="#521d12"/>
        </g>
      </g>
      <path id="Path_1581" data-name="Path 1581" d="M281.58,282l-3.751-6.5a27.668,27.668,0,0,1-27.335,25.789,26.882,26.882,0,0,1-12.615-3.158L230,311.78H298.77Z" transform="translate(-215.791 -250.202)" fill="#be6a00"/>
      <g id="Group_706" data-name="Group 706" transform="translate(0 54.67)">
        <rect id="Rectangle_1727" data-name="Rectangle 1727" width="95.168" height="15.457" rx="2" transform="translate(1.011 1.01)" fill="#fe8e00"/>
        <path id="Path_1582" data-name="Path 1582" d="M297.047,335.641v13.436H203.9V335.641h93.147m0-2.021H203.9a2.021,2.021,0,0,0-2.021,2.021v13.436A2.022,2.022,0,0,0,203.9,351.1h93.147a2.022,2.022,0,0,0,2.021-2.021V335.641a2.021,2.021,0,0,0-2.021-2.021Z" transform="translate(-201.879 -333.62)" fill="#521d12"/>
      </g>
      <g id="Group_707" data-name="Group 707" transform="translate(12.368 44.438)">
        <path id="Path_1583" data-name="Path 1583" d="M229.365,332.2a1.011,1.011,0,0,1-.876-1.516l8.552-14.812a1.01,1.01,0,0,1,.875-.505h51.31a1.011,1.011,0,0,1,.876.505l8.551,14.812a1.011,1.011,0,0,1-.876,1.516Z" transform="translate(-227.343 -314.36)" fill="#fff"/>
        <path id="Path_1584" data-name="Path 1584" d="M288.237,315.392l8.551,14.812H228.375l8.551-14.812h51.31m0-2.021h-51.31a2.022,2.022,0,0,0-1.751,1.011l-8.551,14.812a2.021,2.021,0,0,0,1.75,3.032h68.413a2.022,2.022,0,0,0,1.751-3.032l-8.551-14.812a2.021,2.021,0,0,0-1.751-1.011Z" transform="translate(-226.354 -313.371)" fill="#521d12"/>
      </g>
      <g id="Group_708" data-name="Group 708" transform="translate(14.389 46.459)">
        <path id="Path_1585" data-name="Path 1585" d="M231.25,330.626l-.9,1.557h68.413l-1.557-2.7-6.995-12.113H265.74a26.8,26.8,0,0,1-27.683,1.475Z" transform="translate(-230.354 -317.371)" fill="#bababa"/>
      </g>
      <g id="Group_709" data-name="Group 709" transform="translate(29.472 14.814)">
        <path id="Path_1586" data-name="Path 1586" d="M263.213,273.578a1.011,1.011,0,0,1-.875-1.516l8.548-14.81a1.01,1.01,0,0,1,.875-.505h17.108a1.01,1.01,0,0,1,.875.505l8.551,14.81a1.011,1.011,0,0,1-.875,1.516Z" transform="translate(-261.191 -255.736)" fill="#fff"/>
        <path id="Path_1587" data-name="Path 1587" d="M287.88,256.768l8.551,14.81H262.223l8.548-14.81H287.88m0-2.021H270.771a2.022,2.022,0,0,0-1.751,1.011l-8.548,14.81a2.022,2.022,0,0,0,1.751,3.032h34.208a2.021,2.021,0,0,0,1.75-3.032l-8.551-14.81a2.02,2.02,0,0,0-1.75-1.011Z" transform="translate(-260.202 -254.747)" fill="#521d12"/>
      </g>
      <g id="Group_710" data-name="Group 710" transform="translate(60.875 25.303)">
        <path id="Path_1588" data-name="Path 1588" d="M327.171,281.846l-2.009-3.476-1.654-2.866a26.665,26.665,0,0,1-1.163,6.341Z" transform="translate(-322.345 -275.505)" fill="#bababa"/>
      </g>
    </g>
  </g>
</svg>
