<svg xmlns="http://www.w3.org/2000/svg" width="15.556" height="16.237" viewBox="0 0 15.556 16.237">
  <g id="_001-accept" data-name="001-accept" transform="translate(0 0)">
    <path id="Path_1823" data-name="Path 1823" d="M11.606,7.411h.088q.227,0,.451.029V1.916A1.918,1.918,0,0,0,10.228,0H1.916A1.918,1.918,0,0,0,0,1.916V12.935a1.918,1.918,0,0,0,1.916,1.916h5.55a4.874,4.874,0,0,1,4.14-7.44ZM6.871,3.128H9.71a.476.476,0,0,1,0,.951H6.871a.476.476,0,0,1,0-.951Zm0,1.9H9.71a.476.476,0,0,1,0,.951H6.871a.476.476,0,0,1,0-.951Zm-1.6,6.692H2.434a.476.476,0,0,1,0-.951H5.273a.476.476,0,0,1,0,.951Zm0-1.935H2.434a.476.476,0,1,1,0-.951H5.273a.476.476,0,1,1,0,.951Zm0-1.9H2.434a.476.476,0,0,1,0-.951H5.273a.476.476,0,0,1,0,.951Zm0-1.9H2.434a.476.476,0,0,1,0-.951H5.273a.476.476,0,0,1,0,.951Zm0-1.9H2.434a.476.476,0,0,1,0-.951H5.273a.476.476,0,1,1,0,.951ZM6.4,7.41a.476.476,0,0,1,.476-.476H8.238a.476.476,0,0,1,0,.951H6.871A.476.476,0,0,1,6.4,7.41Zm0,0" transform="translate(0)" fill="#fe8e00"/>
    <path id="Path_1824" data-name="Path 1824" d="M248.154,263.861a3.925,3.925,0,0,0-2.746-1.181h-.071a3.952,3.952,0,1,0,2.817,1.182Zm-1.129,2.129-1.509,1.881a.476.476,0,0,1-.65.088l-1.125-.815a.476.476,0,0,1,.558-.77l.758.55,1.225-1.527a.476.476,0,0,1,.742.6Zm0,0" transform="translate(-233.732 -254.349)" fill="#fe8e00"/>
  </g>
</svg>
