<svg xmlns="http://www.w3.org/2000/svg" width="13.396" height="13.396" viewBox="0 0 13.396 13.396">
  <g id="Icon_feather-settings" data-name="Icon feather-settings" transform="translate(-1 -1)">
    <path id="Path_1847" data-name="Path 1847" d="M16.881,15.19a1.69,1.69,0,1,1-1.69-1.69A1.69,1.69,0,0,1,16.881,15.19Z" transform="translate(-7.492 -7.492)" fill="none" stroke="currentColor" stroke-linecap="round" stroke-linejoin="round" stroke-width="1"/>
    <path id="Path_1848" data-name="Path 1848" d="M11.868,9.389a.93.93,0,0,0,.186,1.026l.034.034a1.128,1.128,0,1,1-1.595,1.595l-.034-.034a.937.937,0,0,0-1.589.665v.1a1.127,1.127,0,0,1-2.254,0v-.051a.976.976,0,0,0-1.634-.665l-.034.034a1.128,1.128,0,1,1-1.595-1.595l.034-.034A.937.937,0,0,0,2.723,8.87h-.1a1.127,1.127,0,0,1,0-2.254h.051a.976.976,0,0,0,.665-1.634l-.034-.034A1.128,1.128,0,1,1,4.9,3.354l.034.034a.93.93,0,0,0,1.026.186h.045a.93.93,0,0,0,.563-.851v-.1a1.127,1.127,0,0,1,2.254,0v.051a.937.937,0,0,0,1.589.665l.034-.034A1.128,1.128,0,1,1,12.042,4.9l-.034.034a.93.93,0,0,0-.186,1.026v.045a.93.93,0,0,0,.851.563h.1a1.127,1.127,0,0,1,0,2.254h-.051a.93.93,0,0,0-.851.563Z" fill="none" stroke="currentColor" stroke-linecap="round" stroke-linejoin="round" stroke-width="1"/>
  </g>
</svg>
