<svg id="support" xmlns="http://www.w3.org/2000/svg" width="13.396" height="13.396" viewBox="0 0 13.396 13.396">
  <g id="Group_1114" data-name="Group 1114" transform="translate(1.116)">
    <g id="Group_1113" data-name="Group 1113">
      <path id="Path_1842" data-name="Path 1842" d="M43.349,0A3.349,3.349,0,0,0,40,3.349V5.805a1.565,1.565,0,0,0,1.563,1.563h.223V6.921h-.223a1.118,1.118,0,0,1-1.116-1.116V3.349a2.9,2.9,0,0,1,5.805,0V5.805a1.118,1.118,0,0,1-1.116,1.116h-.223v.447h.223A1.565,1.565,0,0,0,46.7,5.805V3.349A3.349,3.349,0,0,0,43.349,0Z" transform="translate(-40)" fill="currentColor"/>
    </g>
  </g>
  <g id="Group_1116" data-name="Group 1116" transform="translate(1.116 10.026)">
    <g id="Group_1115" data-name="Group 1115">
      <path id="Path_1843" data-name="Path 1843" d="M40.726,359.744l.163-.257-.377-.239-.163.257a2.226,2.226,0,0,0,.092,2.519v.594h.447v-.67a.223.223,0,0,0-.049-.14A1.779,1.779,0,0,1,40.726,359.744Z" transform="translate(-40.003 -359.248)" fill="currentColor"/>
    </g>
  </g>
  <g id="Group_1118" data-name="Group 1118" transform="translate(8.261)">
    <g id="Group_1117" data-name="Group 1117">
      <path id="Path_1844" data-name="Path 1844" d="M300.019,0h-2.9A1.118,1.118,0,0,0,296,1.116V3.349a1.118,1.118,0,0,0,1.116,1.116h.447v.893a.223.223,0,0,0,.138.206.22.22,0,0,0,.086.017.223.223,0,0,0,.158-.065l1.051-1.051h1.024a1.118,1.118,0,0,0,1.116-1.116V1.116A1.118,1.118,0,0,0,300.019,0Zm.67,3.349a.67.67,0,0,1-.67.67H298.9a.223.223,0,0,0-.158.065l-.735.735V4.242a.223.223,0,0,0-.223-.223h-.67a.67.67,0,0,1-.67-.67V1.116a.67.67,0,0,1,.67-.67h2.9a.67.67,0,0,1,.67.67Z" transform="translate(-296)" fill="currentColor"/>
    </g>
  </g>
  <g id="Group_1120" data-name="Group 1120" transform="translate(9.21 0.837)">
    <g id="Group_1119" data-name="Group 1119" transform="translate(0)">
      <rect id="Rectangle_1808" data-name="Rectangle 1808" width="1" height="1" transform="translate(0.488 -0.139)" fill="currentColor"/>
    </g>
  </g>
  <g id="Group_1122" data-name="Group 1122" transform="translate(11.722 0.837)">
    <g id="Group_1121" data-name="Group 1121" transform="translate(0)">
      <rect id="Rectangle_1809" data-name="Rectangle 1809" width="1" height="1" transform="translate(-0.024 -0.139)" fill="currentColor"/>
    </g>
  </g>
  <g id="Group_1124" data-name="Group 1124" transform="translate(9.21 1.675)">
    <g id="Group_1123" data-name="Group 1123" transform="translate(0 0)">
      <rect id="Rectangle_1810" data-name="Rectangle 1810" width="3" height="1" transform="translate(0.488 0.024)" fill="currentColor"/>
    </g>
  </g>
  <g id="Group_1126" data-name="Group 1126" transform="translate(9.21 3.349)">
    <g id="Group_1125" data-name="Group 1125" transform="translate(0 0)">
      <rect id="Rectangle_1811" data-name="Rectangle 1811" width="1" transform="translate(0.488 0.349)" fill="currentColor"/>
    </g>
  </g>
  <g id="Group_1128" data-name="Group 1128" transform="translate(6.928 10.026)">
    <g id="Group_1127" data-name="Group 1127">
      <path id="Path_1845" data-name="Path 1845" d="M248.764,359.505l-.163-.257-.377.239.163.257a1.778,1.778,0,0,1-.113,2.064.223.223,0,0,0-.049.14v.67h.447v-.594A2.226,2.226,0,0,0,248.764,359.505Z" transform="translate(-248.224 -359.248)" fill="currentColor"/>
    </g>
  </g>
  <g id="Group_1130" data-name="Group 1130" transform="translate(0 1.949)">
    <g id="Group_1129" data-name="Group 1129">
      <path id="Path_1846" data-name="Path 1846" d="M13.173,75.489H11.164a1.563,1.563,0,0,0-1.56,1.5L8.931,78.2v-.925a1.565,1.565,0,0,0-1.563-1.563H6.552l-.006,0,0,0H6.028a.447.447,0,0,1-.447-.447V74.74A2.233,2.233,0,0,0,6.7,72.809V71.023a2.237,2.237,0,0,0-.268-1.06.223.223,0,0,0-.29-.1L2.361,71.646a.223.223,0,0,0-.128.2v.962A2.233,2.233,0,0,0,3.349,74.74v.525a.447.447,0,0,1-.447.447H1.563A1.565,1.565,0,0,0,0,77.275v4.019H.447V77.275a1.118,1.118,0,0,1,1.116-1.116h.71l2.011,2.809a.223.223,0,0,0,.179.093h0a.223.223,0,0,0,.179-.089l2.121-2.813h.6a1.118,1.118,0,0,1,1.116,1.116v1.786a.223.223,0,0,0,.418.108l1.052-1.894h1.28L9.058,81.294h.508l2.178-4.019h.089A1.565,1.565,0,0,0,13.4,75.712.223.223,0,0,0,13.173,75.489ZM2.679,72.809v-.82l3.448-1.622a1.786,1.786,0,0,1,.125.656v1.786a1.786,1.786,0,0,1-3.572,0ZM4.47,78.461,3.781,77.5H5.2Zm1.063-1.409H3.461l-.639-.893H2.9a.893.893,0,0,0,.893-.893v-.326a2.231,2.231,0,0,0,1.34,0v.326a.893.893,0,0,0,.893.893h.179Zm6.3-.223H10.07a1.118,1.118,0,0,1,1.094-.893h1.764A1.118,1.118,0,0,1,11.833,76.828Z" transform="translate(0 -69.847)" fill="currentColor"/>
    </g>
  </g>
</svg>
