<svg id="twitter" xmlns="http://www.w3.org/2000/svg" width="24.681" height="24.681" viewBox="0 0 24.681 24.681">
  <path id="Path_1589" data-name="Path 1589" d="M12.34,0A12.34,12.34,0,1,1,0,12.34,12.34,12.34,0,0,1,12.34,0Z" fill="#fe8e00"/>
  <path id="Path_1590" data-name="Path 1590" d="M78.366,83.355a6.145,6.145,0,0,1-1.728.46A2.942,2.942,0,0,0,77.961,82.2a6.1,6.1,0,0,1-1.91.709,3.046,3.046,0,0,0-2.2-.921,2.963,2.963,0,0,0-3.006,2.918,2.832,2.832,0,0,0,.078.666,8.626,8.626,0,0,1-6.2-3.05,2.835,2.835,0,0,0-.407,1.467,2.894,2.894,0,0,0,1.337,2.429,3.057,3.057,0,0,1-1.363-.366v.037a2.944,2.944,0,0,0,2.413,2.862,3.11,3.11,0,0,1-.792.1A3.032,3.032,0,0,1,65.352,89a3,3,0,0,0,2.81,2.027,6.148,6.148,0,0,1-3.735,1.249,6.324,6.324,0,0,1-.718-.041,8.7,8.7,0,0,0,4.611,1.312,8.368,8.368,0,0,0,8.557-8.305l-.008-.378A6,6,0,0,0,78.366,83.355Z" transform="translate(-58.311 -75.042)" fill="#fff"/>
</svg>
