<svg xmlns="http://www.w3.org/2000/svg" width="26" height="26" viewBox="0 0 26 26">
  <path id="Icon_ionic-logo-whatsapp" data-name="Icon ionic-logo-whatsapp" d="M15.486,2.25A12.715,12.715,0,0,0,2.722,14.915a12.534,12.534,0,0,0,1.832,6.54L2.25,28.25,9.317,26A12.785,12.785,0,0,0,28.25,14.915,12.715,12.715,0,0,0,15.486,2.25Zm6.347,17.475a3.3,3.3,0,0,1-2.258,1.455c-.6.032-.616.464-3.879-.954s-5.226-4.866-5.381-5.088a6.259,6.259,0,0,1-1.2-3.392,3.617,3.617,0,0,1,1.242-2.654,1.25,1.25,0,0,1,.884-.372c.257,0,.423-.008.614,0s.475-.04.723.617.838,2.272.914,2.437a.591.591,0,0,1,.006.567,2.217,2.217,0,0,1-.346.527c-.17.183-.358.409-.51.548-.169.155-.346.323-.168.654A9.767,9.767,0,0,0,14.2,16.376a8.9,8.9,0,0,0,2.559,1.7c.32.174.511.155.71-.054s.85-.914,1.079-1.229.445-.254.739-.135,1.866.961,2.186,1.135.534.263.61.4A2.68,2.68,0,0,1,21.833,19.725Z" transform="translate(-2.25 -2.25)" fill="#fe8e00"/>
</svg>
